<?xml version="1.0" encoding="UTF-8" standalone="no"?>
<!-- Created with Inkscape (http://www.inkscape.org/) -->

<svg
   width="500"
   height="500"
   viewBox="0 0 132.29166 132.29166"
   version="1.1"
   id="svg309"
   inkscape:version="1.2.2 (b0a8486541, 2022-12-01)"
   sodipodi:docname="leandro-sciola.svg"
   xml:space="preserve"
   xmlns:inkscape="http://www.inkscape.org/namespaces/inkscape"
   xmlns:sodipodi="http://sodipodi.sourceforge.net/DTD/sodipodi-0.dtd"
   xmlns="http://www.w3.org/2000/svg"
   xmlns:svg="http://www.w3.org/2000/svg"><sodipodi:namedview
     id="namedview311"
     pagecolor="#ffffff"
     bordercolor="#666666"
     borderopacity="1.0"
     inkscape:showpageshadow="2"
     inkscape:pageopacity="0.0"
     inkscape:pagecheckerboard="0"
     inkscape:deskcolor="#d1d1d1"
     inkscape:document-units="px"
     showgrid="false"
     inkscape:zoom="0.43602118"
     inkscape:cx="198.38486"
     inkscape:cy="332.55265"
     inkscape:window-width="1920"
     inkscape:window-height="1023"
     inkscape:window-x="0"
     inkscape:window-y="33"
     inkscape:window-maximized="1"
     inkscape:current-layer="layer1"
     showguides="false" /><defs
     id="defs306" /><g
     inkscape:label="Camada 1"
     inkscape:groupmode="layer"
     id="layer1"
     transform="translate(-81.595062,26.149876)"><circle
       style="fill:#1a1a1a;fill-opacity:1;stroke:none;stroke-width:6.85311"
       id="path3817"
       cx="147.74089"
       cy="39.995953"
       r="66.145828" /><g
       id="g4630"
       transform="matrix(25.23993,0,0,25.23993,-1248.4468,-1486.6794)"><path
         d="m 54.999539,60.19783 c 0.2513,-0.602504 0.415426,-0.864282 0.502779,-0.876748 h 0.0041 c 0.04571,0 0.04917,0.08727 0.0052,0.21607 -0.06381,0.186984 -0.228026,0.461228 -0.512153,0.660678 z m -0.495547,0.307428 c -0.09745,0.236847 -0.152899,0.372062 -0.255415,0.550735 -0.296701,-0.199218 -0.546743,0.108526 -0.598644,0.259586 -0.04395,0.128813 -0.0048,0.257622 0.191808,0.265933 h 0.01663 c 0.166208,0 0.322057,-0.09141 0.472825,-0.241001 0.16107,0.124653 0.351223,0.249312 0.579759,0.249312 0.272735,-0.0048 0.432413,-0.110079 0.553888,-0.283407 0.05739,-0.07248 0.10303,-0.139362 0.126973,-0.174013 -0.418292,0.578534 -0.832392,0.363957 -1.14922,0.07574 0.22635,-0.249312 0.356559,-0.544929 0.513156,-0.906432 0.348269,-0.253468 0.54441,-0.536021 0.615304,-0.743781 0.05813,-0.170363 0.02861,-0.290864 -0.07527,-0.290864 h -0.0041 c -0.214737,0.0083 -0.558077,0.162053 -0.962213,1.175921 -0.36292,0.151463 -0.723802,0.05319 -0.884352,-0.176837 0.124041,0.232775 0.511927,0.36003 0.858868,0.239108 z m -0.802294,0.887938 c -0.0097,-0.12581 0.125226,-0.275618 0.242843,-0.277922 0.03272,-0.0013 0.06437,0.0039 0.09605,0.01507 0.0397,0.01446 0.08406,0.04417 0.118529,0.08131 -0.156193,0.260998 -0.421898,0.379438 -0.457422,0.181542 z"
         style="fill:#ffffff;stroke-width:0.0865664"
         id="path1101"
         sodipodi:nodetypes="ccscccccccscccccccscccccccccc" /><path
         d="m 56.221908,60.147965 c 0.256441,-0.177284 0.712862,-0.469537 0.796518,-0.714695 0.0085,-0.02493 0.01288,-0.04987 0.0089,-0.07479 -0.02028,-0.06233 -0.08515,-0.09141 -0.176567,-0.09141 -0.340726,0 -1.096067,0.411366 -1.295989,0.997248 -0.133281,0.39059 0.419893,0.498624 0.659812,0.635746 -0.204292,0.08725 -0.717057,0.299174 -0.790787,0.515245 -0.01418,0.04155 -0.01031,0.07895 0.0087,0.120507 0.02048,0.0374 0.06468,0.05401 0.127001,0.05401 0.236846,0 0.70723,-0.282553 0.790886,-0.527711 0.01843,-0.05401 0.01609,-0.10804 -0.0126,-0.157897 0.180428,-0.08987 0.557984,-0.347326 0.682731,-0.490149 -0.05646,0.06654 -0.530943,0.375353 -0.714237,0.448599 -0.174458,-0.18283 -0.581274,-0.232692 -0.572412,-0.477848 0.003,-0.02077 0.0059,-0.04155 0.01442,-0.06648 0.112013,-0.32826 0.891949,-0.872592 1.12464,-0.872592 0.0083,0 0.01663,0 0.02352,0.0041 0.01936,0.0041 0.02615,0.02077 0.01622,0.04987 -0.03023,0.08858 -0.213208,0.249998 -0.47431,0.462018 -0.07338,0.05942 -0.191238,0.164087 -0.21642,0.186225 z m 0.0061,0.79781 c -0.0042,0.0124 -0.003,0.02077 -0.0058,0.02908 -0.06522,0.191138 -0.472984,0.436296 -0.618416,0.436296 -0.0374,0 -0.06355,-0.02077 -0.05079,-0.05817 0.01702,-0.04987 0.288678,-0.249312 0.674974,-0.407209 z"
         style="fill:#ffffff;stroke-width:0.0865664"
         id="path1103"
         sodipodi:nodetypes="cccsccccsscccccscccccsccccs" /></g></g></svg>
