<svg xmlns="http://www.w3.org/2000/svg" xmlns:svg="http://www.w3.org/2000/svg" xml:space="preserve" width="16" height="16" viewBox="0 0 4.2333332 4.2333332" version="1.1" id="svg309"><g id="layer1" transform="matrix(0.2,0,0,0.2,-10.642915,-11.662355)"><rect style="fill:#1a1a1a;fill-opacity:1;stroke:none;stroke-width:1.99232" id="rect345" width="21.166666" height="21.166666" x="53.214573" y="58.311775" rx="1.9843748" ry="1.9843748" /><path d="m 62.139385,67.74203 c 1.2565,-3.01252 2.07713,-4.32141 2.513895,-4.38374 h 0.0205 c 0.22855,0 0.24585,0.43635 0.026,1.08035 -0.31905,0.93492 -1.14013,2.30614 -2.560765,3.30339 z m -2.477735,1.53714 c -0.48725,1.184235 -0.764495,1.86031 -1.277075,2.753675 -1.483505,-0.99609 -2.733715,0.54263 -2.99322,1.29793 -0.21975,0.644065 -0.024,1.28811 0.95904,1.329665 h 0.08315 c 0.83104,0 1.610285,-0.45705 2.364125,-1.205005 0.80535,0.623265 1.756115,1.24656 2.898795,1.24656 1.363675,-0.024 2.162065,-0.550395 2.76944,-1.417035 0.28695,-0.3624 0.51515,-0.69681 0.634865,-0.870065 -2.09146,2.89267 -4.16196,1.819785 -5.7461,0.3787 1.13175,-1.24656 1.782795,-2.724645 2.56578,-4.53216 1.741345,-1.26734 2.72205,-2.680105 3.07652,-3.718905 0.29065,-0.851815 0.14305,-1.45432 -0.37635,-1.45432 h -0.0205 c -1.073685,0.0415 -2.790385,0.810265 -4.811065,5.879605 -1.8146,0.757315 -3.61901,0.26595 -4.42176,-0.884185 0.620205,1.163875 2.559635,1.80015 4.29434,1.19554 z m -4.01147,4.43969 c -0.0485,-0.62905 0.62613,-1.37809 1.214215,-1.38961 0.1636,-0.0065 0.32185,0.0195 0.48025,0.07535 0.1985,0.0723 0.4203,0.22085 0.592645,0.40655 -0.780965,1.30499 -2.10949,1.89719 -2.28711,0.90771 z" style="fill:#ffffff;stroke-width:0.432832" id="path1101" /><path d="m 68.25123,67.492705 c 1.282205,-0.88642 3.56431,-2.347685 3.98259,-3.573475 0.0425,-0.12465 0.0644,-0.24935 0.0445,-0.37395 -0.1014,-0.31165 -0.42575,-0.45705 -0.882835,-0.45705 -1.70363,0 -5.480335,2.05683 -6.479945,4.98624 -0.666405,1.95295 2.099465,2.49312 3.29906,3.17873 -1.02146,0.43625 -3.585285,1.49587 -3.953935,2.576225 -0.0709,0.20775 -0.05155,0.39475 0.0435,0.602535 0.1024,0.187 0.3234,0.27005 0.635005,0.27005 1.18423,0 3.53615,-1.412765 3.95443,-2.638555 0.09215,-0.27005 0.08045,-0.5402 -0.063,-0.789485 0.90214,-0.44935 2.78992,-1.73663 3.413655,-2.450745 -0.2823,0.3327 -2.654715,1.876765 -3.571185,2.242995 -0.87229,-0.91415 -2.90637,-1.16346 -2.86206,-2.38924 0.015,-0.10385 0.0295,-0.20775 0.0721,-0.3324 0.560065,-1.6413 4.459745,-4.36296 5.6232,-4.36296 0.0415,0 0.08315,0 0.1176,0.0205 0.0968,0.0205 0.13075,0.10385 0.0811,0.24935 -0.15115,0.4429 -1.06604,1.24999 -2.37155,2.31009 -0.3669,0.2971 -0.95619,0.820435 -1.0821,0.931125 z m 0.0305,3.98905 c -0.021,0.062 -0.015,0.10385 -0.029,0.1454 -0.3261,0.95569 -2.36492,2.18148 -3.09208,2.18148 -0.187,0 -0.31775,-0.10385 -0.25395,-0.29085 0.0851,-0.24935 1.44339,-1.24656 3.37487,-2.036045 z" style="fill:#ffffff;stroke-width:0.432832" id="path1103" /></g></svg>
