<?xml version="1.0" encoding="UTF-8" standalone="no"?>
<!-- Created with Inkscape (http://www.inkscape.org/) -->

<svg
   xmlns:dc="http://purl.org/dc/elements/1.1/"
   xmlns:cc="http://creativecommons.org/ns#"
   xmlns:rdf="http://www.w3.org/1999/02/22-rdf-syntax-ns#"
   xmlns:svg="http://www.w3.org/2000/svg"
   xmlns="http://www.w3.org/2000/svg"
   xmlns:sodipodi="http://sodipodi.sourceforge.net/DTD/sodipodi-0.dtd"
   xmlns:inkscape="http://www.inkscape.org/namespaces/inkscape"
   width="47.627243mm"
   height="33.082783mm"
   viewBox="0 0 47.627243 33.082782"
   version="1.1"
   id="svg8"
   inkscape:version="0.92.4 (5da689c313, 2019-01-14)"
   sodipodi:docname="signature.svg"
   inkscape:export-filename="/home/debian/www/sciola/assets/images/brands/signature.png"
   inkscape:export-xdpi="96"
   inkscape:export-ydpi="96">
  <defs
     id="defs2" />
  <sodipodi:namedview
     id="base"
     pagecolor="#ffffff"
     bordercolor="#666666"
     borderopacity="1.0"
     inkscape:pageopacity="0.0"
     inkscape:pageshadow="2"
     inkscape:zoom="3.7708124"
     inkscape:cx="65.389928"
     inkscape:cy="72.873135"
     inkscape:document-units="mm"
     inkscape:current-layer="layer1"
     showgrid="false"
     inkscape:window-width="1920"
     inkscape:window-height="1020"
     inkscape:window-x="0"
     inkscape:window-y="31"
     inkscape:window-maximized="1"
     fit-margin-top="0"
     fit-margin-left="0"
     fit-margin-right="0"
     fit-margin-bottom="0" />
  <metadata
     id="metadata5">
    <rdf:RDF>
      <cc:Work
         rdf:about="">
        <dc:format>image/svg+xml</dc:format>
        <dc:type
           rdf:resource="http://purl.org/dc/dcmitype/StillImage" />
        <dc:title></dc:title>
      </cc:Work>
    </rdf:RDF>
  </metadata>
  <g
     inkscape:label="Camada 1"
     inkscape:groupmode="layer"
     id="layer1"
     transform="translate(-35.788899,-100.17346)">
    <path
       style="fill:none;stroke:#000000;stroke-width:0.79374999;stroke-linecap:round;stroke-linejoin:miter;stroke-miterlimit:4;stroke-dasharray:none;stroke-opacity:1"
       d="m 53.7858,110.17518 c 1.942948,-7.83009 0.452046,-10.290107 0.06493,-9.44777 l 2.634708,32.14362 c -0.48125,-5.95352 1.561628,-15.80656 -4.704855,-16.8436 -3.404401,-0.55427 -7.615774,-0.54574 -10.178245,-0.17657 -2.833968,0.5426 -2.012441,0.78806 0.0638,0.67949 6.849849,-0.36469 16.296741,-2.2905 22.1156,-4.06926 6.516184,-2.42841 -3.764298,-3.94111 -5.080359,-0.56468 -0.289276,0.96599 0.105755,2.04509 1.053338,3.23513 3.71324,3.38722 6.911414,5.94589 6.183695,11.31942 -1.591194,10.74853 -21.944145,6.39831 -28.16577,-1.52708 -3.375051,-4.3713 -0.995012,-9.45488 3.57167,-10.2393 2.123237,-0.33245 4.66246,-0.34244 6.898771,-0.43437 11.526566,-0.52883 23.127202,-0.34197 34.770532,-0.6251"
       id="path815"
       inkscape:connector-curvature="0"
       sodipodi:nodetypes="cccccccccccccc"
       inkscape:export-xdpi="96"
       inkscape:export-ydpi="96" />
  </g>
</svg>
